<svg width="150" height="24" viewBox="0 0 158 24" fill="none" xmlns="http://www.w3.org/2000/svg">
<g filter="url(#filter0_d_14:209)">
<path d="M15.1 5.24C14.78 4.65333 14.34 4.20667 13.78 3.9C13.22 3.59333 12.5667 3.44 11.82 3.44C10.9933 3.44 10.26 3.62667 9.62 4C8.98 4.37333 8.48 4.90667 8.12 5.6C7.76 6.29333 7.58 7.09333 7.58 8C7.58 8.93333 7.76 9.74667 8.12 10.44C8.49333 11.1333 9.00667 11.6667 9.66 12.04C10.3133 12.4133 11.0733 12.6 11.94 12.6C13.0067 12.6 13.88 12.32 14.56 11.76C15.24 11.1867 15.6867 10.3933 15.9 9.38H11.1V7.24H18.66V9.68C18.4733 10.6533 18.0733 11.5533 17.46 12.38C16.8467 13.2067 16.0533 13.8733 15.08 14.38C14.12 14.8733 13.04 15.12 11.84 15.12C10.4933 15.12 9.27333 14.82 8.18 14.22C7.1 13.6067 6.24667 12.76 5.62 11.68C5.00667 10.6 4.7 9.37333 4.7 8C4.7 6.62667 5.00667 5.4 5.62 4.32C6.24667 3.22667 7.1 2.38 8.18 1.78C9.27333 1.16667 10.4867 0.86 11.82 0.86C13.3933 0.86 14.76 1.24667 15.92 2.02C17.08 2.78 17.88 3.85333 18.32 5.24H15.1ZM23.5316 3.3V6.8H28.2316V9.02H23.5316V12.72H28.8316V15H20.7316V1.02H28.8316V3.3H23.5316ZM34.1761 3.3V6.8H38.8761V9.02H34.1761V12.72H39.4761V15H31.3761V1.02H39.4761V3.3H34.1761ZM49.9006 15L44.8206 8.78V15H42.0206V1.04H44.8206V7.3L49.9006 1.04H53.2806L47.5206 7.96L53.4406 15H49.9006ZM58.0823 3.3V6.8H62.7823V9.02H58.0823V12.72H63.3823V15H55.2823V1.02H63.3823V3.3H58.0823ZM73.1269 15L70.0469 9.56H68.7269V15H65.9269V1.04H71.1669C72.2469 1.04 73.1669 1.23333 73.9269 1.62C74.6869 1.99333 75.2535 2.50667 75.6269 3.16C76.0135 3.8 76.2069 4.52 76.2069 5.32C76.2069 6.24 75.9402 7.07333 75.4069 7.82C74.8735 8.55333 74.0802 9.06 73.0269 9.34L76.3669 15H73.1269ZM68.7269 7.46H71.0669C71.8269 7.46 72.3935 7.28 72.7669 6.92C73.1402 6.54667 73.3269 6.03333 73.3269 5.38C73.3269 4.74 73.1402 4.24667 72.7669 3.9C72.3935 3.54 71.8269 3.36 71.0669 3.36H68.7269V7.46ZM83.5594 15.14C82.586 15.14 81.706 14.9733 80.9194 14.64C80.146 14.3067 79.5327 13.8267 79.0794 13.2C78.626 12.5733 78.3927 11.8333 78.3794 10.98H81.3794C81.4194 11.5533 81.6194 12.0067 81.9794 12.34C82.3527 12.6733 82.8594 12.84 83.4994 12.84C84.1527 12.84 84.666 12.6867 85.0394 12.38C85.4127 12.06 85.5994 11.6467 85.5994 11.14C85.5994 10.7267 85.4727 10.3867 85.2194 10.12C84.966 9.85333 84.646 9.64667 84.2594 9.5C83.886 9.34 83.366 9.16667 82.6994 8.98C81.7927 8.71333 81.0527 8.45333 80.4794 8.2C79.9194 7.93333 79.4327 7.54 79.0194 7.02C78.6194 6.48667 78.4194 5.78 78.4194 4.9C78.4194 4.07333 78.626 3.35333 79.0394 2.74C79.4527 2.12667 80.0327 1.66 80.7794 1.34C81.526 1.00667 82.3794 0.84 83.3394 0.84C84.7794 0.84 85.946 1.19333 86.8394 1.9C87.746 2.59333 88.246 3.56667 88.3394 4.82H85.2594C85.2327 4.34 85.026 3.94667 84.6394 3.64C84.266 3.32 83.766 3.16 83.1394 3.16C82.5927 3.16 82.1527 3.3 81.8194 3.58C81.4994 3.86 81.3394 4.26667 81.3394 4.8C81.3394 5.17333 81.4594 5.48667 81.6994 5.74C81.9527 5.98 82.2594 6.18 82.6194 6.34C82.9927 6.48667 83.5127 6.66 84.1794 6.86C85.086 7.12667 85.826 7.39333 86.3994 7.66C86.9727 7.92667 87.466 8.32667 87.8794 8.86C88.2927 9.39333 88.4994 10.0933 88.4994 10.96C88.4994 11.7067 88.306 12.4 87.9194 13.04C87.5327 13.68 86.966 14.1933 86.2194 14.58C85.4727 14.9533 84.586 15.14 83.5594 15.14ZM103.613 7.84C104.399 7.98667 105.046 8.38 105.553 9.02C106.059 9.66 106.313 10.3933 106.313 11.22C106.313 11.9667 106.126 12.6267 105.753 13.2C105.393 13.76 104.866 14.2 104.173 14.52C103.479 14.84 102.659 15 101.713 15H95.6925V1.04H101.453C102.399 1.04 103.213 1.19333 103.893 1.5C104.586 1.80667 105.106 2.23333 105.453 2.78C105.813 3.32667 105.993 3.94667 105.993 4.64C105.993 5.45333 105.773 6.13333 105.332 6.68C104.906 7.22667 104.333 7.61333 103.613 7.84ZM98.4925 6.8H101.053C101.719 6.8 102.233 6.65333 102.593 6.36C102.953 6.05333 103.133 5.62 103.133 5.06C103.133 4.5 102.953 4.06667 102.593 3.76C102.233 3.45333 101.719 3.3 101.053 3.3H98.4925V6.8ZM101.313 12.72C101.993 12.72 102.519 12.56 102.893 12.24C103.279 11.92 103.473 11.4667 103.473 10.88C103.473 10.28 103.273 9.81333 102.873 9.48C102.473 9.13333 101.933 8.96 101.253 8.96H98.4925V12.72H101.313ZM115.744 15L112.664 9.56H111.344V15H108.544V1.04H113.784C114.864 1.04 115.784 1.23333 116.544 1.62C117.304 1.99333 117.871 2.50667 118.244 3.16C118.631 3.8 118.824 4.52 118.824 5.32C118.824 6.24 118.557 7.07333 118.024 7.82C117.491 8.55333 116.697 9.06 115.644 9.34L118.984 15H115.744ZM111.344 7.46H113.684C114.444 7.46 115.011 7.28 115.384 6.92C115.757 6.54667 115.944 6.03333 115.944 5.38C115.944 4.74 115.757 4.24667 115.384 3.9C115.011 3.54 114.444 3.36 113.684 3.36H111.344V7.46ZM129.917 12.34H124.357L123.437 15H120.497L125.517 1.02H128.777L133.797 15H130.837L129.917 12.34ZM129.157 10.1L127.137 4.26L125.117 10.1H129.157ZM138.473 1.04V15H135.673V1.04H138.473ZM153.179 15H150.379L144.039 5.42V15H141.239V1.02H144.039L150.379 10.62V1.02H153.179V15Z" fill="white"/>
</g>
<defs>
<filter id="filter0_d_14:209" x="0.700012" y="0.839996" width="156.479" height="22.3" filterUnits="userSpaceOnUse" color-interpolation-filters="sRGB">
<feFlood flood-opacity="0" result="BackgroundImageFix"/>
<feColorMatrix in="SourceAlpha" type="matrix" values="0 0 0 0 0 0 0 0 0 0 0 0 0 0 0 0 0 0 127 0" result="hardAlpha"/>
<feOffset dy="4"/>
<feGaussianBlur stdDeviation="2"/>
<feComposite in2="hardAlpha" operator="out"/>
<feColorMatrix type="matrix" values="0 0 0 0 0 0 0 0 0 0 0 0 0 0 0 0 0 0 0.25 0"/>
<feBlend mode="normal" in2="BackgroundImageFix" result="effect1_dropShadow_14:209"/>
<feBlend mode="normal" in="SourceGraphic" in2="effect1_dropShadow_14:209" result="shape"/>
</filter>
</defs>
</svg>
